<?xml version="1.0" encoding="iso-8859-1"?>
<!-- Generator: Adobe Illustrator 19.0.0, SVG Export Plug-In . SVG Version: 6.00 Build 0)  -->
<svg version="1.1" id="Capa_1" xmlns="http://www.w3.org/2000/svg" xmlns:xlink="http://www.w3.org/1999/xlink" x="0px" y="0px"
	 viewBox="0 0 510.3 510.3" style="enable-background:new 0 0 510.3 510.3;" xml:space="preserve">
<g>
	<g>
		<g>
			<path style="fill:#12a2da;" d="M429.064,197.276c0-0.151,0.043-1.057,0.043-1.057c0-75.282-61.261-136.521-136.543-136.521
				c-52.223,0-97.823,30.587-120.689,76.339c-11.691-9.103-25.13-15.682-40.294-15.682c-37.145,0-67.387,30.199-67.387,67.387
				c0,0,0.453,3.279,0.798,5.824C27.028,206.486,0,241.172,0,282.286c0,25.367,9.879,49.246,27.826,67.15
				c17.968,17.99,41.804,27.891,67.215,27.891h130.266v73.276h83.953v-73.276h109.946c50.217,0,91.093-40.855,91.093-91.007
				C510.278,239.597,474.428,202.409,429.064,197.276z M419.207,350.493H309.26v-55.955h54.682l-95.623-101.965l-97.673,101.965
				h54.66v55.955H95.041c-18.206,0-35.333-7.075-48.211-19.975c-12.878-12.899-19.953-30.027-19.953-48.189
				c0-32.68,23.21-60.808,55.243-66.956l12.511-2.394l-2.092-14.431l-1.467-10.785c0-22.347,18.184-40.51,40.51-40.51
				c13.266,0,25.712,6.514,33.305,17.408l15.251,21.873l8.499-25.303c15.013-44.652,56.796-74.656,103.906-74.656
				c60.484,0,109.709,49.203,109.709,109.644l-1.337,25.712l15.121,0.302l3.149-0.086c35.441,0,64.216,28.797,64.216,64.216
				C483.401,321.717,454.626,350.493,419.207,350.493z"/>
		</g>
	</g>
	<g>
	</g>
	<g>
	</g>
	<g>
	</g>
	<g>
	</g>
	<g>
	</g>
	<g>
	</g>
	<g>
	</g>
	<g>
	</g>
	<g>
	</g>
	<g>
	</g>
	<g>
	</g>
	<g>
	</g>
	<g>
	</g>
	<g>
	</g>
	<g>
	</g>
</g>
<g>
</g>
<g>
</g>
<g>
</g>
<g>
</g>
<g>
</g>
<g>
</g>
<g>
</g>
<g>
</g>
<g>
</g>
<g>
</g>
<g>
</g>
<g>
</g>
<g>
</g>
<g>
</g>
<g>
</g>
</svg>
